<svg width="246" height="198" viewBox="0 0 246 198" fill="none" xmlns="http://www.w3.org/2000/svg">
<g clip-path="url(#clip0_553_23980)">
<path d="M70.5331 0.000976562H70.5321C62.2959 0.000976562 55.6191 6.67775 55.6191 14.914V79.369C55.6191 87.6052 62.2959 94.282 70.5321 94.282H70.5331C78.7694 94.282 85.4461 87.6052 85.4461 79.369V14.914C85.4461 6.67775 78.7694 0.000976562 70.5331 0.000976562Z" fill="#06A7C1"/>
<path d="M244.486 42.9481C242.864 42.9482 241.259 43.2677 239.76 43.8885C238.262 44.5093 236.901 45.4191 235.754 46.566C234.608 47.7129 233.698 49.0744 233.077 50.5728C232.457 52.0712 232.138 53.6774 232.138 55.2991V180.792C232.138 183.701 230.982 186.492 228.925 188.549C226.868 190.606 224.078 191.762 221.168 191.762C218.259 191.762 215.468 190.606 213.411 188.549C211.354 186.492 210.198 183.701 210.198 180.792V42.9481H244.486Z" fill="#B4E6FD"/>
<g style="mix-blend-mode:multiply" opacity="0.15">
<path d="M224.606 42.9481C220.699 42.9481 218.317 48.579 218.317 52.275V180.549C218.317 184.815 216.668 188.526 214.239 190.42C211.832 188.558 210.198 184.945 210.198 180.791V42.9481H224.606Z" fill="#82D6FC"/>
</g>
<path d="M244.737 42.9481V42.9529C244.654 42.9479 244.573 42.9481 244.488 42.9481H244.737Z" fill="white"/>
<path d="M221.169 191.763H100.749C96.6915 191.763 92.7997 190.151 89.9304 187.282C87.0611 184.413 85.4492 180.521 85.4492 176.463V60.1261H180.374V14.9152C180.369 11.3931 181.616 7.98394 183.893 5.29724C184.16 4.97524 184.444 4.66724 184.742 4.37024C186.828 2.28459 189.485 0.864071 192.378 0.288695C195.271 -0.286681 198.27 0.00873184 200.995 1.13757C203.72 2.26641 206.049 4.17794 207.687 6.63049C209.326 9.08304 210.2 11.9666 210.2 14.9161V180.793C210.201 183.702 211.357 186.492 213.414 188.549C215.471 190.606 218.26 191.762 221.169 191.763Z" fill="#05599E"/>
<path d="M202.574 191.761H100.748C96.6905 191.761 92.7987 190.149 89.9294 187.28C87.0601 184.41 85.4482 180.519 85.4482 176.461V60.1241H180.369V14.9129C180.071 13.1904 180.217 11.4202 180.795 9.77032C181.373 8.12043 182.363 6.64556 183.671 5.48566C184.979 4.32575 186.561 3.51935 188.268 3.14288C189.975 2.76642 191.75 2.83256 193.425 3.33478C195.099 3.837 196.618 4.75867 197.836 6.01251C199.054 7.26636 199.931 8.81059 200.385 10.4988C200.839 12.1871 200.853 13.9635 200.428 15.659C200.002 17.3545 199.15 18.9132 197.953 20.1871V182.817C197.952 184.569 198.371 186.295 199.175 187.851C199.979 189.408 201.145 190.749 202.574 191.761Z" fill="#05599E"/>
<path opacity="0.5" d="M173.508 96.639V160.897C173.508 161.722 173.345 162.538 173.029 163.3C172.713 164.062 172.25 164.754 171.667 165.336C171.083 165.919 170.391 166.381 169.629 166.696C168.867 167.011 168.05 167.173 167.225 167.173H85.4482V96.639H173.508Z" fill="#088AD4"/>
<path d="M195.281 0.00012207C191.326 0.000387216 187.532 1.57176 184.735 4.36877C181.937 7.16579 180.366 10.9592 180.365 14.9149V154.777C180.365 155.602 180.203 156.418 179.887 157.18C179.571 157.942 179.109 158.635 178.525 159.218C177.942 159.801 177.25 160.263 176.488 160.579C175.726 160.894 174.909 161.056 174.084 161.056H61.9001C60.2347 161.056 58.6373 160.395 57.4595 159.217C56.2816 158.04 55.6197 156.442 55.6191 154.777V14.8051C55.6207 10.8803 57.1806 7.11687 59.9558 4.34167C62.731 1.56648 66.4945 0.00659502 70.4192 0.00500488L195.281 0.00012207Z" fill="#B4E6FD"/>
<path d="M119.683 21.442H69.2144C68.2706 21.442 67.3654 21.0673 66.698 20.4C66.0306 19.7328 65.6555 18.8276 65.6553 17.8839C65.6554 17.4167 65.7476 16.954 65.9265 16.5223C66.1054 16.0907 66.3678 15.6986 66.6982 15.3683C67.0287 15.038 67.4208 14.776 67.8525 14.5973C68.2843 14.4186 68.7471 14.3269 69.2144 14.327H119.683C120.627 14.327 121.531 14.7017 122.198 15.3688C122.866 16.0358 123.24 16.9405 123.24 17.8839C123.24 18.8274 122.866 19.7323 122.198 20.3995C121.531 21.0668 120.627 21.4418 119.683 21.442Z" fill="#82D6FC"/>
<path d="M102.807 37.3651H69.2134C68.7461 37.3652 68.2833 37.2733 67.8516 37.0946C67.4198 36.9159 67.0275 36.6539 66.697 36.3236C66.3665 35.9933 66.1045 35.6012 65.9255 35.1696C65.7466 34.7379 65.6544 34.2752 65.6543 33.808C65.6543 33.3407 65.7464 32.8779 65.9253 32.4462C66.1042 32.0144 66.3663 31.6223 66.6968 31.2919C67.0273 30.9615 67.4195 30.6994 67.8513 30.5206C68.2831 30.3419 68.7461 30.2497 69.2134 30.2499H102.807C103.275 30.2497 103.737 30.3419 104.169 30.5206C104.601 30.6994 104.993 30.9615 105.323 31.2919C105.654 31.6223 105.916 32.0144 106.095 32.4462C106.273 32.8779 106.365 33.3407 106.365 33.808C106.365 34.7515 105.99 35.6561 105.323 36.3231C104.656 36.9902 103.751 37.3651 102.807 37.3651Z" fill="#82D6FC"/>
<path d="M102.808 53.417H69.2133C67.2482 53.417 65.6553 55.0097 65.6553 56.9745C65.6553 58.9392 67.2482 60.532 69.2133 60.532H102.808C104.773 60.532 106.366 58.9392 106.366 56.9745C106.366 55.0097 104.773 53.417 102.808 53.417Z" fill="#82D6FC"/>
<path d="M102.807 113.189H69.2134C68.2695 113.189 67.3642 112.814 66.6968 112.147C66.0293 111.479 65.6543 110.574 65.6543 109.63C65.6544 109.163 65.7466 108.7 65.9255 108.268C66.1045 107.837 66.3665 107.445 66.697 107.114C67.0275 106.784 67.4198 106.522 67.8516 106.343C68.2833 106.165 68.7461 106.073 69.2134 106.073H102.807C103.275 106.073 103.737 106.165 104.169 106.343C104.601 106.522 104.993 106.784 105.323 107.114C105.654 107.445 105.916 107.837 106.094 108.269C106.273 108.7 106.365 109.163 106.365 109.63C106.365 110.097 106.273 110.56 106.095 110.992C105.916 111.424 105.654 111.816 105.323 112.147C104.993 112.477 104.601 112.739 104.169 112.918C103.737 113.097 103.275 113.189 102.807 113.189Z" fill="#82D6FC"/>
<path d="M119.813 140.403H69.2134C68.746 140.403 68.2831 140.311 67.8513 140.132C67.4195 139.953 67.0273 139.691 66.6968 139.361C66.3663 139.03 66.1041 138.638 65.9253 138.206C65.7464 137.774 65.6543 137.311 65.6543 136.844C65.6544 136.377 65.7466 135.914 65.9255 135.482C66.1045 135.051 66.3665 134.659 66.697 134.328C67.0275 133.998 67.4198 133.736 67.8516 133.558C68.2833 133.379 68.7461 133.287 69.2134 133.287H119.813C120.757 133.287 121.662 133.662 122.329 134.329C122.996 134.996 123.37 135.901 123.37 136.844C123.37 137.311 123.279 137.774 123.1 138.206C122.921 138.637 122.659 139.03 122.329 139.36C121.999 139.691 121.606 139.953 121.175 140.132C120.743 140.311 120.28 140.403 119.813 140.403Z" fill="#C3E5F4"/>
<path d="M166.676 90.021H137.544C136.601 90.021 135.696 89.6463 135.029 88.979C134.361 88.3117 133.986 87.4065 133.986 86.4629C133.986 85.9957 134.078 85.533 134.257 85.1013C134.436 84.6696 134.698 84.2776 135.028 83.9473C135.359 83.6169 135.751 83.3549 136.183 83.1763C136.614 82.9976 137.077 82.9057 137.544 82.906H166.676C167.143 82.9059 167.606 82.9978 168.038 83.1765C168.469 83.3552 168.862 83.6172 169.192 83.9475C169.522 84.2778 169.784 84.6699 169.963 85.1016C170.142 85.5332 170.234 85.9957 170.233 86.4629C170.233 87.4064 169.859 88.3113 169.192 88.9785C168.525 89.6457 167.62 90.0207 166.676 90.021Z" fill="#82D6FC"/>
<path d="M166.675 68.162H153.436C151.471 68.162 149.878 69.7547 149.878 71.7195C149.878 73.6842 151.471 75.277 153.436 75.277H166.675C168.64 75.277 170.233 73.6842 170.233 71.7195C170.233 69.7547 168.64 68.162 166.675 68.162Z" fill="#82D6FC"/>
<path d="M166.675 53.417H153.436C151.471 53.417 149.878 55.0097 149.878 56.9745C149.878 58.9392 151.471 60.532 153.436 60.532H166.675C168.64 60.532 170.233 58.9392 170.233 56.9745C170.233 55.0097 168.64 53.417 166.675 53.417Z" fill="#82D6FC"/>
<path d="M114.898 68.162H69.2133C67.2482 68.162 65.6553 69.7547 65.6553 71.7195C65.6553 73.6842 67.2482 75.277 69.2133 75.277H114.898C116.863 75.277 118.456 73.6842 118.456 71.7195C118.456 69.7547 116.863 68.162 114.898 68.162Z" fill="#82D6FC"/>
<path d="M101.137 82.906H69.2133C67.2482 82.906 65.6553 84.4988 65.6553 86.4635C65.6553 88.4283 67.2482 90.021 69.2133 90.021H101.137C103.102 90.021 104.695 88.4283 104.695 86.4635C104.695 84.4988 103.102 82.906 101.137 82.906Z" fill="#82D6FC"/>
<path d="M166.675 133.288H139.941C137.976 133.288 136.383 134.881 136.383 136.845C136.383 138.81 137.976 140.403 139.941 140.403H166.675C168.64 140.403 170.233 138.81 170.233 136.845C170.233 134.881 168.64 133.288 166.675 133.288Z" fill="#4BB266"/>
<g style="mix-blend-mode:multiply" opacity="0.2">
<path d="M62.1428 29.9655C59.9299 29.964 57.7213 30.1594 55.543 30.5494V103.492C60.6062 104.408 65.8045 104.258 70.8069 103.054C75.8093 101.85 80.5064 99.6178 84.5986 96.4989C88.6909 93.38 92.0889 89.4432 94.5762 84.9391C97.0635 80.4349 98.5854 75.4622 99.0454 70.3375C99.5054 65.2128 98.8934 60.0486 97.248 55.1735C95.6027 50.2984 92.9599 45.8192 89.4885 42.0214C86.0171 38.2236 81.793 35.1903 77.085 33.1146C72.3769 31.039 67.2881 29.9666 62.1428 29.9655Z" fill="#326497"/>
</g>
<path d="M83.6098 87.2033C98.0814 72.7316 98.0814 49.2684 83.6098 34.7967C69.1381 20.3251 45.6749 20.3251 31.2033 34.7967C16.7316 49.2684 16.7316 72.7316 31.2033 87.2033C45.6749 101.675 69.1381 101.675 83.6098 87.2033Z" fill="#05599E"/>
<path d="M78.1516 43.2723C78.1516 41.9476 77.342 41.0644 76.0172 41.0276C74.3245 40.9908 72.6318 40.9908 70.939 41.0276C69.5775 41.0644 68.8047 41.9108 68.7679 43.2355C68.6943 44.1555 68.6943 45.0755 68.7679 45.9954C69.0255 48.2401 68.1423 50.0801 66.7072 51.6992C64.3153 54.4223 61.5922 56.4463 57.6547 56.0415C55.9988 55.9311 54.3428 55.9311 52.7237 56.0415C50.7365 56.0783 49.559 57.1454 49.4854 59.0222C49.4118 61.5613 49.4118 64.1004 49.4854 66.6395C49.559 68.5898 50.8101 69.6938 52.7605 69.6938H56.3668C57.6179 69.6938 58.869 69.6938 60.1202 69.6938C61.9601 69.6938 63.1009 68.5162 63.1377 66.6763C63.1377 64.5788 63.1377 62.4812 63.1377 60.3837C63.1377 55.4159 68.1791 50.4113 73.1469 50.4113C74.1037 50.4113 75.0605 50.4481 76.0541 50.4113C77.4524 50.3745 78.1148 49.7121 78.1516 48.3137C78.1516 46.6578 78.1516 44.9651 78.1516 43.2723Z" fill="white"/>
<path d="M75.9167 56.073H69.9922C69.0354 56.073 68.2994 56.8458 68.2994 57.7657V63.3959C68.2994 68.8421 64.8771 73.8468 59.6885 75.4659C50.9304 78.2258 42.8715 71.7492 42.8715 63.3959C42.8715 56.3674 48.5753 50.7004 55.567 50.7004H61.3813C62.338 50.7004 63.074 49.9276 63.074 49.0076V43.0463C63.074 42.0895 62.3012 41.3535 61.3813 41.3535H55.4567C54.4999 41.3535 53.7639 42.1263 53.7639 43.0463V45.9166C44.5274 46.8733 37.6461 54.8218 38.0141 64.0951C38.3453 73.1476 45.8522 80.6177 54.9047 80.9857C64.0676 81.3537 71.9793 74.5827 73.0464 65.4567H75.9535C76.9103 65.4567 77.6463 64.6839 77.6463 63.7639V57.8393C77.6095 56.8458 76.8735 56.073 75.9167 56.073Z" fill="white"/>
<path d="M19.6243 100.319C23.2371 96.7061 23.2371 90.8487 19.6243 87.236C16.0116 83.6232 10.1542 83.6232 6.54145 87.236C2.9287 90.8487 2.9287 96.7061 6.54145 100.319C10.1542 103.932 16.0116 103.932 19.6243 100.319Z" fill="white"/>
<path d="M32.3491 109.631C34.8333 109.631 36.8471 107.618 36.8471 105.133C36.8471 102.649 34.8333 100.635 32.3491 100.635C29.8649 100.635 27.8511 102.649 27.8511 105.133C27.8511 107.618 29.8649 109.631 32.3491 109.631Z" fill="white"/>
<path d="M81.9351 190.579C81.2592 190.613 80.6087 190.847 80.0658 191.252C79.523 191.656 79.1123 192.212 78.8854 192.85C78.6586 193.487 78.6259 194.178 78.7916 194.834C78.9572 195.49 79.3136 196.082 79.8159 196.536C80.3182 196.99 80.9437 197.284 81.6133 197.382C82.2829 197.48 82.9666 197.378 83.5779 197.087C84.1892 196.797 84.7006 196.332 85.0476 195.751C85.3946 195.17 85.5614 194.499 85.5271 193.823C85.4808 192.916 85.0764 192.065 84.4028 191.457C83.7292 190.849 82.8415 190.533 81.9351 190.579Z" fill="#00D6D2"/>
<path d="M232.853 33.0999C233.008 33.0751 233.147 32.9899 233.239 32.863C233.331 32.7361 233.369 32.5778 233.344 32.4229C233.229 31.7126 233.302 30.9844 233.557 30.3114C233.812 29.6385 234.24 29.0445 234.798 28.5893C235.355 28.134 236.022 27.8335 236.733 27.718C237.443 27.6024 238.171 27.6759 238.844 27.9309C239.715 28.2601 240.657 28.3532 241.575 28.2008C242.494 28.0483 243.355 27.6558 244.073 27.0629C244.79 26.47 245.338 25.6979 245.661 24.8249C245.984 23.9519 246.07 23.009 245.911 22.0919C245.884 21.9381 245.798 21.8013 245.67 21.7115C245.542 21.6217 245.384 21.5862 245.23 21.6129C245.152 21.6261 245.078 21.6547 245.011 21.6971C244.945 21.7396 244.887 21.7949 244.842 21.8599C244.798 21.9221 244.767 21.9926 244.751 22.0673C244.735 22.1419 244.734 22.2191 244.749 22.2939C244.873 23.0064 244.806 23.7389 244.555 24.4171C244.304 25.0954 243.879 25.6952 243.321 26.1558C242.764 26.6164 242.094 26.9213 241.381 27.0397C240.668 27.1581 239.936 27.0857 239.259 26.8299C238.394 26.4958 237.455 26.3982 236.54 26.5473C235.625 26.6963 234.766 27.0866 234.051 27.6779C233.562 28.0754 233.147 28.5574 232.827 29.1009C232.668 29.3718 232.534 29.6567 232.427 29.9519C232.12 30.8032 232.035 31.7188 232.181 32.6119C232.207 32.7652 232.292 32.9022 232.417 32.9935C232.543 33.0848 232.7 33.123 232.853 33.0999Z" fill="#05599E"/>
<path d="M34.4104 170.079C34.4871 170.067 34.5607 170.04 34.6269 169.999C34.6931 169.958 34.7507 169.905 34.7963 169.842C34.8419 169.779 34.8746 169.708 34.8927 169.633C34.9107 169.557 34.9137 169.479 34.9015 169.402C34.7859 168.692 34.8594 167.963 35.1145 167.291C35.3696 166.618 35.7974 166.024 36.3548 165.568C36.9122 165.113 37.5795 164.813 38.2899 164.697C39.0002 164.582 39.7285 164.655 40.4015 164.91C41.2721 165.239 42.2143 165.332 43.1325 165.18C44.0508 165.027 44.9123 164.635 45.6299 164.042C46.3475 163.449 46.8955 162.677 47.2183 161.804C47.5412 160.931 47.6275 159.988 47.4684 159.071C47.4551 158.994 47.4267 158.921 47.3849 158.856C47.343 158.79 47.2885 158.733 47.2245 158.689C47.1622 158.644 47.0917 158.612 47.017 158.595C46.9423 158.578 46.865 158.576 46.7895 158.589C46.7114 158.602 46.6368 158.631 46.57 158.673C46.5032 158.716 46.4455 158.771 46.4004 158.836C46.3564 158.898 46.3256 158.969 46.31 159.044C46.2943 159.118 46.2941 159.195 46.3094 159.27C46.4331 159.983 46.3661 160.715 46.1153 161.393C45.8645 162.071 45.4388 162.671 44.8813 163.132C44.3239 163.592 43.6545 163.897 42.9411 164.016C42.2278 164.134 41.4958 164.062 40.8194 163.806C39.954 163.472 39.0151 163.374 38.0994 163.523C37.1837 163.672 36.3243 164.063 35.6095 164.654C35.1202 165.052 34.7057 165.535 34.3855 166.078C34.2266 166.349 34.0927 166.633 33.9854 166.928C33.6775 167.779 33.5931 168.695 33.7404 169.588C33.7648 169.742 33.8489 169.879 33.9744 169.971C34.0999 170.063 34.2566 170.102 34.4104 170.079Z" fill="#05599E"/>
<path d="M33.9771 1.32354C33.3013 1.35802 32.6508 1.59212 32.108 1.99623C31.5652 2.40035 31.1544 2.95634 30.9275 3.59391C30.7006 4.23148 30.6679 4.922 30.8335 5.57818C30.999 6.23435 31.3553 6.8267 31.8575 7.28035C32.3597 7.734 32.9851 8.02858 33.6546 8.12683C34.3242 8.22509 35.0078 8.12261 35.6192 7.83236C36.2305 7.54211 36.742 7.07711 37.0891 6.49617C37.4362 5.91522 37.6032 5.24441 37.5691 4.56854C37.5464 4.11958 37.4356 3.67948 37.2428 3.27339C37.05 2.8673 36.779 2.50318 36.4455 2.20183C36.1119 1.90048 35.7222 1.66781 35.2987 1.51711C34.8751 1.36641 34.4261 1.30063 33.9771 1.32354Z" fill="#FF70E9"/>
<path d="M32.5299 29.6106C32.4542 29.4741 32.3276 29.3732 32.1778 29.3297C32.0279 29.2862 31.8668 29.3038 31.7299 29.3786C31.1017 29.7297 30.3921 29.9093 29.6724 29.8993C28.9528 29.8893 28.2485 29.69 27.6303 29.3215C27.0121 28.953 26.5017 28.4283 26.1506 27.8001C25.7995 27.1718 25.6199 26.4622 25.6299 25.7426C25.6427 24.8117 25.409 23.8939 24.9526 23.0824C24.4962 22.271 23.8332 21.5947 23.031 21.1222C22.2288 20.6497 21.3159 20.3978 20.3849 20.3921C19.4538 20.3863 18.5378 20.627 17.7299 21.0896C17.5949 21.1667 17.496 21.2943 17.4549 21.4443C17.4139 21.5943 17.434 21.7544 17.5109 21.8896C17.55 21.9583 17.6024 22.0184 17.6651 22.0665C17.7278 22.1146 17.7995 22.1496 17.8759 22.1696C17.9495 22.1902 18.0265 22.1955 18.1021 22.1852C18.1778 22.1748 18.2505 22.1491 18.3159 22.1096C18.9435 21.7504 19.6551 21.5636 20.3782 21.5682C21.1013 21.5728 21.8104 21.7685 22.4335 22.1356C23.0566 22.5027 23.5714 23.028 23.9259 23.6583C24.2804 24.2886 24.4619 25.0015 24.4519 25.7246C24.433 26.6517 24.6615 27.5671 25.1137 28.3766C25.5659 29.1861 26.2256 29.8606 27.0249 30.3306C27.5656 30.6554 28.1599 30.8809 28.7799 30.9966C29.0891 31.053 29.4026 31.0815 29.7169 31.0816C30.6217 31.0801 31.5113 30.8474 32.3009 30.4056C32.4357 30.3296 32.5353 30.2037 32.5781 30.055C32.6209 29.9063 32.6037 29.7467 32.5299 29.6106Z" fill="#05599E"/>
<path d="M77.5684 170.934C77.5688 171.005 77.5527 171.076 77.5214 171.14C77.4826 171.22 77.4221 171.287 77.347 171.334C77.2718 171.381 77.185 171.406 77.0964 171.406H67.4133C67.3245 171.406 67.2375 171.381 67.1622 171.334C67.0869 171.287 67.0265 171.22 66.9877 171.14C66.949 171.06 66.9336 170.971 66.9432 170.883C66.9529 170.794 66.9872 170.711 67.0424 170.641L71.8843 164.514C71.9285 164.458 71.9848 164.413 72.049 164.382C72.1132 164.351 72.1836 164.334 72.2549 164.334C72.3262 164.334 72.3965 164.351 72.4607 164.382C72.5249 164.413 72.5812 164.458 72.6254 164.514L77.4673 170.641C77.5328 170.725 77.5683 170.828 77.5684 170.934ZM68.3884 170.461H76.1213L72.2543 165.568L68.3884 170.461Z" fill="#C6D4FF"/>
<path d="M226.684 19.7109C226.612 19.7113 226.542 19.6948 226.478 19.6629C226.398 19.6245 226.331 19.5641 226.284 19.4888C226.237 19.4136 226.212 19.3266 226.213 19.2379L226.248 9.55391C226.248 9.46524 226.274 9.37851 226.321 9.30356C226.369 9.22861 226.436 9.16845 226.516 9.12991C226.596 9.09079 226.685 9.07527 226.774 9.08519C226.863 9.09511 226.946 9.13005 227.016 9.18591L233.125 14.0509C233.181 14.0952 233.226 14.1515 233.257 14.2157C233.288 14.2798 233.304 14.3502 233.304 14.4214C233.304 14.4927 233.288 14.563 233.257 14.6271C233.226 14.6913 233.181 14.7476 233.125 14.7919L226.98 19.6099C226.896 19.677 226.791 19.7128 226.684 19.7109ZM227.19 10.5339L227.161 18.2669L232.068 14.4179L227.19 10.5339Z" fill="#C6D4FF"/>
<path d="M172.06 131.243H64.3921C62.183 131.243 60.3921 133.034 60.3921 135.243V152.227C60.3921 154.436 62.183 156.227 64.3921 156.227H172.06C174.269 156.227 176.06 154.436 176.06 152.227V135.243C176.06 133.034 174.269 131.243 172.06 131.243Z" fill="white"/>
<path d="M107.6 142.21H106.817C106.693 142.21 106.59 142.312 106.59 142.441C106.59 142.477 106.599 142.517 106.617 142.548L108.987 146.848H111.486L109.912 143.615C109.463 142.748 108.574 142.21 107.6 142.21Z" fill="url(#paint0_linear_553_23980)"/>
<path d="M111.487 146.843H108.983L119.509 134.365L111.487 146.843Z" fill="#66CD00"/>
<path d="M124.461 147.639C125.333 147.639 126.04 148.346 126.04 149.218C126.04 150.089 125.333 150.796 124.461 150.796C123.59 150.796 122.883 150.089 122.883 149.218C122.887 148.346 123.594 147.644 124.461 147.639Z" fill="#329AD6"/>
<path d="M104.723 137.932C105.27 138.025 105.715 138.421 105.866 138.955C106.084 139.702 105.652 140.485 104.905 140.702C104.776 140.742 104.638 140.76 104.505 140.76C103.727 140.76 103.082 140.12 103.082 139.355C103.078 138.563 103.714 137.923 104.501 137.919C104.576 137.919 104.652 137.923 104.723 137.932Z" fill="#329AD6"/>
<path d="M104.659 142.148H105.424C105.553 142.148 105.656 142.25 105.656 142.379V149.521C105.656 150.21 105.095 150.77 104.406 150.77H103.588C103.459 150.77 103.352 150.668 103.352 150.535V143.455C103.348 142.73 103.935 142.148 104.659 142.148C104.655 142.148 104.655 142.148 104.659 142.148Z" fill="#329AD6"/>
<path d="M119.503 149.653C119.067 150.329 118.253 150.921 116.99 150.921C115.171 150.921 114.06 149.689 114.06 148.355C114.06 146.829 115.185 145.98 116.608 145.771L118.707 145.46C119.191 145.389 119.347 145.148 119.347 144.855C119.347 144.25 118.88 143.743 117.911 143.743C117.008 143.743 116.47 144.259 116.319 144.899C116.292 145.024 116.167 145.104 116.043 145.077L115.843 145.033C114.816 144.815 114.446 143.521 115.229 142.818C115.843 142.267 116.732 141.884 117.897 141.884C120.601 141.884 121.606 143.41 121.606 145.126V149.48C121.606 150.191 121.028 150.774 120.312 150.774H119.743C119.618 150.774 119.516 150.672 119.512 150.547L119.503 149.653ZM119.347 147.225V146.843L117.421 147.136C116.834 147.225 116.363 147.55 116.363 148.212C116.363 148.715 116.728 149.2 117.475 149.2C118.444 149.2 119.347 148.733 119.347 147.225Z" fill="#329AD6"/>
<path d="M132.546 149.653C132.114 150.329 131.296 150.921 130.033 150.921C128.214 150.921 127.103 149.689 127.103 148.355C127.103 146.829 128.228 145.98 129.651 145.771L131.75 145.46C132.234 145.389 132.39 145.148 132.39 144.855C132.39 144.25 131.923 143.743 130.954 143.743C130.051 143.743 129.513 144.259 129.362 144.899C129.335 145.024 129.21 145.104 129.086 145.077L128.886 145.033C127.859 144.815 127.489 143.521 128.272 142.818C128.886 142.267 129.775 141.884 130.94 141.884C133.644 141.884 134.649 143.41 134.649 145.126V149.48C134.649 150.191 134.071 150.774 133.355 150.774H132.786C132.661 150.774 132.559 150.672 132.555 150.547L132.546 149.653ZM132.39 147.225V146.843L130.464 147.136C129.877 147.225 129.406 147.55 129.406 148.212C129.406 148.715 129.771 149.2 130.518 149.2C131.487 149.2 132.39 148.733 132.39 147.225Z" fill="#329AD6"/>
<path d="M135.752 149.459V142.383C135.752 142.254 135.859 142.148 135.988 142.148H136.806C137.496 142.148 138.056 142.708 138.056 143.397V150.535C138.056 150.664 137.954 150.766 137.825 150.766H137.06C136.339 150.766 135.752 150.179 135.752 149.459Z" fill="#329AD6"/>
<path d="M109.08 147.43V150.53C109.08 150.658 109.187 150.765 109.316 150.765H110.134C110.823 150.765 111.384 150.205 111.384 149.516V147.43H109.08Z" fill="#329AD6"/>
<path d="M139.634 136.202C139.634 136.042 139.537 135.935 139.376 135.931C139.172 135.927 138.967 135.927 138.763 135.931C138.598 135.935 138.505 136.038 138.5 136.198C138.492 136.309 138.492 136.42 138.5 136.531C138.532 136.803 138.425 137.025 138.251 137.221C137.962 137.55 137.633 137.794 137.157 137.745C136.957 137.732 136.757 137.732 136.562 137.745C136.321 137.75 136.179 137.879 136.17 138.106C136.161 138.412 136.161 138.719 136.17 139.026C136.179 139.262 136.33 139.395 136.566 139.395H137.002C137.153 139.395 137.304 139.395 137.455 139.395C137.678 139.395 137.816 139.253 137.82 139.03C137.82 138.777 137.82 138.524 137.82 138.27C137.82 137.67 138.429 137.065 139.03 137.065C139.145 137.065 139.261 137.069 139.381 137.065C139.55 137.06 139.63 136.98 139.634 136.811C139.634 136.611 139.634 136.407 139.634 136.202Z" fill="#329AD6"/>
<path d="M139.364 137.749H138.648C138.533 137.749 138.444 137.843 138.444 137.954V138.634C138.444 139.292 138.03 139.897 137.403 140.093C136.345 140.426 135.371 139.644 135.371 138.634C135.371 137.785 136.06 137.1 136.905 137.1H137.608C137.723 137.1 137.812 137.006 137.812 136.895V136.175C137.812 136.059 137.719 135.97 137.608 135.97H136.892C136.776 135.97 136.687 136.064 136.687 136.175V136.522C135.571 136.637 134.739 137.598 134.784 138.719C134.824 139.813 135.731 140.715 136.825 140.76C137.932 140.804 138.888 139.986 139.017 138.883H139.369C139.484 138.883 139.573 138.79 139.573 138.679V137.963C139.569 137.843 139.48 137.749 139.364 137.749Z" fill="#329AD6"/>
<path d="M102.428 150.014C102.005 150.392 100.916 151.17 99.7683 150.508C99.7683 150.508 98.0784 149.414 96.3975 146.052L97.7493 144.793C97.7493 144.793 99.786 147.35 102.419 149.667C102.516 149.747 102.525 149.894 102.445 149.992C102.445 150.001 102.436 150.01 102.428 150.014Z" fill="url(#paint1_linear_553_23980)"/>
<path d="M102.254 140.591C101.796 140.191 100.524 139.279 99.3231 140.191C99.3231 140.191 97.7355 141.547 96.7083 143.886V139.604C96.7083 138.741 96.0101 138.039 95.143 138.039H94.596C94.467 138.039 94.3647 138.141 94.3647 138.27V148.747C94.3647 149.859 95.2675 150.757 96.3748 150.757H96.4682C96.5971 150.757 96.7038 150.65 96.7083 150.521V146.644L102.267 140.92C102.356 140.827 102.356 140.68 102.267 140.591C102.263 140.596 102.258 140.596 102.254 140.591Z" fill="#329AD6"/>
<path d="M94.3647 139.15V145.767C94.8005 145.104 95.094 143.872 95.094 142.458C95.094 141.044 94.8005 139.812 94.3647 139.15Z" fill="#55B5E5"/>
<path d="M99.3243 140.19C99.3243 140.19 97.7367 141.547 96.7095 143.886V145.14C97.6433 142.218 99.5466 140.435 99.5466 140.435C100.214 139.879 100.93 139.892 101.526 140.088C100.925 139.781 100.111 139.594 99.3243 140.19Z" fill="url(#paint2_linear_553_23980)"/>
</g>
<defs>
<linearGradient id="paint0_linear_553_23980" x1="107.743" y1="142.279" x2="110.372" y2="146.823" gradientUnits="userSpaceOnUse">
<stop stop-color="#66CD00"/>
<stop offset="0.11" stop-color="#5DBB00"/>
<stop offset="0.38" stop-color="#499300"/>
<stop offset="0.63" stop-color="#3B7500"/>
<stop offset="0.84" stop-color="#326300"/>
<stop offset="1" stop-color="#2F5D00"/>
</linearGradient>
<linearGradient id="paint1_linear_553_23980" x1="96.7311" y1="145.608" x2="100.815" y2="149.843" gradientUnits="userSpaceOnUse">
<stop offset="0.12" stop-color="#103246"/>
<stop offset="0.24" stop-color="#12374C"/>
<stop offset="0.4" stop-color="#16445E"/>
<stop offset="0.58" stop-color="#1D597C"/>
<stop offset="0.79" stop-color="#2676A5"/>
<stop offset="1" stop-color="#329AD6"/>
</linearGradient>
<linearGradient id="paint2_linear_553_23980" x1="96.709" y1="142.471" x2="101.525" y2="142.471" gradientUnits="userSpaceOnUse">
<stop stop-color="#1A5070"/>
<stop offset="0.16" stop-color="#1C5576"/>
<stop offset="0.39" stop-color="#206288"/>
<stop offset="0.66" stop-color="#2777A6"/>
<stop offset="0.95" stop-color="#3094CE"/>
<stop offset="1" stop-color="#329AD6"/>
</linearGradient>
<clipPath id="clip0_553_23980">
<rect width="245.99" height="197.419" fill="white"/>
</clipPath>
</defs>
</svg>
